<svg xmlns="http://www.w3.org/2000/svg" width="3.6in" height="3.6in" viewBox="0 0 256.3 256"><path fill="#fff" d="M1 129.3c0 26.7-.1 53.4 0 80.1a47.6 47.6 0 0 0 16.6 36.4 46.1 46.1 0 0 0 31.2 11.8h160.8a47.2 47.2 0 0 0 10.6-1.2 47.9 47.9 0 0 0 25.3-15.1c7.8-8.9 12-19.3 12-31q.2-80.9 0-161.6a48.3 48.3 0 0 0-1-9.4 46.9 46.9 0 0 0-16.7-27.5 46.6 46.6 0 0 0-29.9-10.7q-80.6-.1-161.2 0a46.9 46.9 0 0 0-8.4.8 46.2 46.2 0 0 0-29 17.5A46.7 46.7 0 0 0 1 49.2c-.1 26.7 0 53.4 0 80.1z"/><path d="M1 129.3c0-26.7-.1-53.4 0-80.1a46.7 46.7 0 0 1 10.3-29.8 46.2 46.2 0 0 1 29-17.5 46.9 46.9 0 0 1 8.4-.8q80.6-.2 161.2 0a46.6 46.6 0 0 1 29.9 10.7 46.9 46.9 0 0 1 16.7 27.5 48.3 48.3 0 0 1 1 9.4q.2 80.7 0 161.6c0 11.7-4.2 22.1-12 31a47.9 47.9 0 0 1-25.3 15.1 47.2 47.2 0 0 1-10.6 1.2H48.8a46.1 46.1 0 0 1-31.2-11.8A47.6 47.6 0 0 1 1 209.4c-.1-26.7 0-53.4 0-80.1zm207.4-78.9h-.9c-5.2 0-10.5-.1-15.7 0l-19.9.3a41.2 41.2 0 0 0-13.3 2.9 27.9 27.9 0 0 0-15.5 14.1c-3 6-4 12.6-4.2 19.2s-.1 14.2-.1 21.4v1h-15.5v30h15.6V228h40v-88.8h24l3.3-29.9h-27.3V92a29.2 29.2 0 0 1 .4-5.1 6.8 6.8 0 0 1 4.7-5.8 19.6 19.6 0 0 1 6.3-.9h18.1z"/><path fill="#fff" d="M208.4 50.4v29.8h-18.1a19.6 19.6 0 0 0-6.3.9 6.8 6.8 0 0 0-4.7 5.8 29.2 29.2 0 0 0-.4 5.1v17.3h27.3l-3.3 29.9h-24V228h-40v-88.7h-15.6v-30h15.5v-1c0-7.2-.1-14.3.1-21.4s1.2-13.2 4.2-19.2a27.9 27.9 0 0 1 15.5-14.1 41.2 41.2 0 0 1 13.3-2.9l19.9-.3c5.2-.1 10.5 0 15.7 0z"/></svg>