<svg xmlns="http://www.w3.org/2000/svg"><symbol id="cart16234" viewBox="0 0 378.1 387.1"><g fill="#020202"><circle cx="299.7" cy="349.1" r="38"/><circle cx="114.6" cy="349.1" r="38"/><path d="M.1 48h38.1l68.7 145-26.7 45.8s-17.9 51.1 34.4 57.2h229v-38.1H122.2l-3.8-5.7 17.1-32.5h141.3a36.1 36.1 0 0 0 32.4-19.1l68.7-124s7.8-22-15.3-28.6H80.2L63 9.8H.1V48"/></g></symbol><symbol id="lightbulb16234" viewBox="0 0 378.1 387.1"><path fill="#010101" d="M259.1 277.2l17.3 24.3s6.1 9.8 17.8 3 9.8-6.4 3-17.8L280 262.4s-5.8-9.6-17.8-3-10 7.2-3.1 17.8m51.8-57.2l28.3 9.1s10.8 4.2 16.1-8.3 4.1-11-8.2-16l-28.4-9.2s-10.4-4.2-16 8.3-3.8 11.7 8.2 16.1m7.5-77.1l28.3-9.1s11.2-3 8.2-16.1-3.1-11.3-16.1-8.2l-28.3 9.1s-11 2.7-8.2 16.1 3.8 11.7 16.1 8.2m-39.1-66.7l17.5-24.1s7.3-9-2.8-17.9-9.2-7.2-17.9 2.9l-17.4 24.1s-7.4 8.6 2.8 17.8 10 7.2 17.8-2.8m-70.6-32.5V14s.6-11.6-12.9-12.7S184 .8 183 14.1l.2 29.7s-.8 11.3 12.8 12.7 12.3-.1 12.7-12.8m-76.2 16.6l-18.1-23.5s-6.5-9.6-17.9-2.4-9.6 6.7-2.4 17.9l18.2 23.6s6.1 9.5 17.9 2.3 9.7-7.5 2.3-17.9m-51.9 58.4l-28.3-9.1s-10.8-4.2-16.1 8.2-4.1 11 8.2 16.1l28.4 9.1s10.4 4.3 16-8.2 3.8-11.8-8.2-16.1m-8 76.9L44.4 205s-11.2 3.1-8.1 16.2 3.2 11.3 16.2 8.1l28.2-9.4s11-2.8 8.1-16.2-4-11.6-16.2-8.1m39.4 67.5l-17.5 24s-7.4 9 2.8 17.9 9.2 7.3 17.8-2.9l17.5-24s7.4-8.6-2.8-17.8-9.9-7.2-17.8 2.8m41.2 38.2h84.7v-29.8s25.7-41.1 30.4-44.7 19-21.6 19.8-56.9-1.1-88.4-92.3-92.3-86.4-.2-92.3 92.3.3 36.2 19.8 56.9l29.9 43.8v30.7m8.4 14.6H230s8.5-.5 9.5 9.6-.3 9.2-9.5 9.6h-68.4s-8.5.5-9.6-9.6 0-8.7 9.6-9.6m-4.5 33.7h77.4s.3 19.7-21.1 22.2-.6 13.8-17.6 15.2-13.4 1.2-17.6-15.2-20.1-.7-21.1-22.2"/></symbol><symbol id="check16234" viewBox="0 0 378.1 387.1"><path d="M39.9 174.9L13.8 202s-18 14.1-3 29.1l117.4 118.3s28 24.1 45.1-1L374.9 53.6s10-17.1-8.1-30.1l-33-21.1s-13.1-8-26.1 7.1L144.2 250.1l-61.4-57.2A230.4 230.4 0 0 1 66.9 176c-4-4.6-12.2-9.4-27-1.1z"/></symbol><symbol id="profile16234" viewBox="0 0 378.1 387.1"><path fill="#020202" d="M-1.2 384.5s9-108 104.1-158.1c0 0 82.3 82.3 173.5 0 0 0 97.7 50.1 102.8 159.4z"/><ellipse cx="190.4" cy="138.2" fill="#020202" rx="106" ry="107"/></symbol><symbol id="star16234" viewBox="0 0 378.1 387.1"><path d="M189.2 12.5l58.4 118.4 130.7 19-94.5 92.2 22.3 130.2-116.9-61.5-116.9 61.5 22.3-130.2L0 149.9l130.7-19 58.5-118.4z"/></symbol><symbol id="truck16234" viewBox="0 0 378.1 387.1"><circle cx="303" cy="243.9" r="36.8"/><circle cx="86.4" cy="243.1" r="36.8"/><circle cx="303.3" cy="241.9" r="20.6" fill="#fff"/><circle cx="86.7" cy="242.7" r="20.6" fill="#fff"/><path fill="#010101" d="M14 78v137S-.9 216.8.3 232.2c0 0-1.2 19 20.2 13.4V264s15.9-.6 17.8-13.5c0 0-4.9-45.3 49-52.6 0 0 48.4.6 45.9 49h101.1v20.2s17.2-8 18.4-15.9c0 0-1.8-49.1 49.6-52.1 0 0 45.4 1.8 45.4 46.5h25.1l5.5-7.9v-16.6s-4.3-6.7-21.4-5.5l.6-19.6-44.7-79.6-77.9-.6-1.8 99.2h-8.6l.6-140.3z"/><path fill="#fff" d="M259.2 141.9v34.3l60.9 7.2-20.3-42.4-40.6.9z"/></symbol></svg>