<svg xmlns="http://www.w3.org/2000/svg" width="3.6in" height="3.6in" viewBox="0 0 256.3 256"><path fill="#fff" d="M128.7.3c-26.5 0-53-.2-79.4.1C20.4.6.6 20.5.6 49.1q-.1 79.8 0 159.5c0 27.3 20.5 47.6 47.7 47.7h160.2a40.4 40.4 0 0 0 9.2-.8c23-4.8 38.2-23.5 38.2-47.3.1-52.2-.5-104.5.3-156.8.4-26.8-18.9-52.2-51.4-51.2-25.3.7-50.7.1-76.1.1z"/><path d="M128.7.3c25.4 0 50.8.6 76.1-.1 32.5-1 51.8 24.4 51.4 51.2-.8 52.3-.2 104.6-.3 156.8 0 23.8-15.2 42.5-38.2 47.3a40.4 40.4 0 0 1-9.2.8H48.3C21.1 256.2.6 235.9.6 208.6Q.5 128.8.6 49.1C.6 20.5 20.4.6 49.3.4 75.7.1 102.2.3 128.7.3zM28 126.1a14.9 14.9 0 0 0-.6 2.9c0 26.7-.3 53.4.1 80.1.2 13 8.9 20.5 22.6 20.5h156.3c14.5 0 22.5-8 22.6-22.6.1-25.3 0-50.7 0-76.1a41.9 41.9 0 0 0-.5-4.7h-40.2c-7 42.3-27.4 63.6-60.4 63.5s-53.4-21.5-60.4-63.6zm200.5-21.7c.2-2.4.5-4.1.5-5.8 0-16.1.1-32.2 0-48.3s-7.9-23.1-23.3-23.1H98.5c0 9.6-.1 18.1 0 26.7.1 4.9-.8 9.3-6.6 9.5s-7.5-4.2-7.5-9.4c0-7.5.1-15-.2-22.5 0-1.4-1.6-2.8-2.5-4.2-.6 1.4-1.8 2.8-1.8 4.2-.2 7.7-.1 15.4-.1 23.1.1 5.2-1.9 9-7.5 8.8s-6.9-3.9-6.8-8.7c0-7.7-.1-15.5 0-23.2.1-4.5-1.7-5.2-5.6-3.4 0 9.1 0 17.9.1 26.7 0 4.5-1.6 7.9-6.4 8.6s-7.8-2.6-7.9-8.2c-.2-9.2-.1-18.3-.1-27.6-12.6 2.6-18 9.3-18.2 22.2s-.1 26.9-.1 40.3v14.3c15.3 0 29.6.1 43.9-.2 1.6 0 3.4-2.1 4.6-3.6 4.4-5.2 8-11.3 13-15.7 28.4-25.1 70.9-18.1 90.6 14.5 1.2 2 3.5 4.7 5.3 4.8 14.5.4 29 .2 43.8.2zm-100.2 55.7c17.1-.1 30.2-13.6 30-31s-14.1-30.3-30.6-30-30.3 14.1-30.3 30.6a30.5 30.5 0 0 0 30.9 30.4z"/><path fill="#fff" d="M28 126.1h39.5c7 42.1 27.4 63.5 60.4 63.6s53.4-21.2 60.4-63.5h40.2a41.9 41.9 0 0 1 .5 4.7c0 25.4.1 50.8 0 76.1-.1 14.6-8.1 22.6-22.6 22.6H50.1c-13.7 0-22.4-7.5-22.6-20.5-.4-26.7-.1-53.4-.1-80.1a14.9 14.9 0 0 1 .6-2.9zm200.5-21.7c-14.8 0-29.3.2-43.8-.2-1.8-.1-4.1-2.8-5.3-4.8-19.7-32.6-62.2-39.6-90.6-14.5-5 4.4-8.6 10.5-13 15.7-1.2 1.5-3 3.6-4.6 3.6-14.3.3-28.6.2-43.9.2V90.1c0-13.4-.1-26.9.1-40.3S33 30.2 45.6 27.6c0 9.3-.1 18.4.1 27.6.1 5.6 3.4 8.9 7.9 8.2s6.4-4.1 6.4-8.6c-.1-8.8-.1-17.6-.1-26.7 3.9-1.8 5.7-1.1 5.6 3.4-.1 7.7 0 15.5 0 23.2-.1 4.8 1.7 8.5 6.8 8.7s7.6-3.6 7.5-8.8c0-7.7-.1-15.4.1-23.1 0-1.4 1.2-2.8 1.8-4.2.9 1.4 2.5 2.8 2.5 4.2.3 7.5.2 15 .2 22.5 0 5.2 1.5 9.6 7.5 9.4s6.7-4.6 6.6-9.5c-.1-8.6 0-17.1 0-26.7h107.2c15.4 0 23.2 7.6 23.3 23.1s0 32.2 0 48.3c0 1.7-.3 3.4-.5 5.8zm-18.9-40.2c0-2 .1-3.9 0-5.9 0-9.3-2.8-12.1-12.2-12.2h-5.2c-17.3 0-18.2.8-18.2 18.2s.5 17.6 17.9 17.6 17.7-.3 17.7-17.7z"/><path fill="#fff" d="M128.3 160.1a30.5 30.5 0 0 1-30.9-30.4c0-16.5 13.7-30.3 30.3-30.6s30.4 13.3 30.6 30-12.9 30.9-30 31z"/><path d="M209.6 64.2c0 17.4-.2 17.7-17.7 17.7S174 81.5 174 64.3s.9-18.2 18.2-18.2h5.2c9.4.1 12.2 2.9 12.2 12.2.1 2 0 3.9 0 5.9z"/></svg>