<svg id="Layer_1" data-name="Layer 1" xmlns="http://www.w3.org/2000/svg" width="256" height="58.5" viewBox="0 0 256 58.5"><title>Artboard 1</title><path d="M30.2,6.6l.3.4.3.4v.2c0,.1,0,.1-.1.2V8c0,.1-.1.2-.3.2H25l-1,.2H21.6v.6l-.3.6-.4.5-.5.9-.2.5-.2.7-.4,1.1-.6,1.1-.3,1-.4,1.1a4.2,4.2,0,0,1-.2.6c-.1.2-.2.3-.2.5l-.4,1.1L16.9,21l-.3.5-.3.6-1.1,2.5c-.1.2-.1.4-.2.6s-.1.5-.2.6l-.5,1.1c-.1.4-.3.8-.4,1.2l-.4,1a9.3,9.3,0,0,0-.5,1h0l-.2.2h0c-.1.1-.1.1-.1.2l-.2.3v.3l-.6,1.1-1,2a2,2,0,0,1-.3.8,4.9,4.9,0,0,1-.4,1.1,6.1,6.1,0,0,1-.5,1.2l-.3.7-.5,1.1a4.9,4.9,0,0,0-.4,1.1l-.5,1.1-.4.9c0,.4-.1.8-.1,1.1a2.5,2.5,0,0,0-.2,1l-.9,2.2-.4,1.1-.2.5v.7a.1.1,0,0,1,0,.2l-.3.3H5.1c-.1,0-.2,0-.3-.2l-.2-.2a.2.2,0,0,1-.2-.2L4,48.7c0-.2,0-.3-.1-.4A.4.4,0,0,1,4,48c0-.2.1-.3.3-.5l.2-.4a1.7,1.7,0,0,1,.2-.5,4.3,4.3,0,0,1,.1-.5l.9-2.3.2-.7c0-.4.1-.7.1-.9s.1-.6.2-.9a4.7,4.7,0,0,1,.6-1.5l.5-1.3L8,36.7c.2-.6.5-1.1.7-1.7a8.1,8.1,0,0,1,.6-1.3,6.7,6.7,0,0,0,.9-2.1l1.2-2.2c0-.1.1-.1.1-.2s.1-.1,0-.1h0a.2.2,0,0,1,.2-.2h.1l.7-1.8.6-1.6.4-1.1,1-2.4.3-.6a.8.8,0,0,1,.2-.5l.5-1.1.5-1.1.3-.6a1.4,1.4,0,0,1,.2-.6l.4-1.1c.1-.1.1-.3.2-.5l.3-.6.3-1,.5-1,.5-1.1a1.4,1.4,0,0,1,.2-.6l.4-.6.5-1,.4-.4h-5l-1.1.2a.6.6,0,0,0-.5.2l-.7.3h-.8c-.2,0-.2.1-.2,0h-.5a1.8,1.8,0,0,1,.1-.6V9.4a.7.7,0,0,1,.3-.3l.3-.3.4-.2h1.3l1.4-.4h2.7l.5-.2h5.5l1-.2h4c.1.1.2.1.4,0h.9Z" fill="#231f20"/><path d="M26,28.8h.4l.6.2a1,1,0,0,1,.4.5c0,.2.1.4.1.6v.8a3.2,3.2,0,0,1-.3.9c-.1.4-.2.7-.4.8l-.4.5a2.7,2.7,0,0,1,1.2.3,1.8,1.8,0,0,0,1.6-.1c.1,0,.1-.1.2,0h.3l.3.2c.1.1.2.1.2.2a1,1,0,0,1-.1.9l-.4.6-.3.7-.5.8-.5.7a4.3,4.3,0,0,1-.4.7,6.4,6.4,0,0,1-.2.7l-.9,2.4h-.1v.6a2,2,0,0,0,.1.5l.2.4a1.1,1.1,0,0,0,.3.5l.3.3h.4a.6.6,0,0,0,.5.2H30l.7-.2.8-.2.6-.2,1-.4.6-.4.6-.3h.4a.5.5,0,0,1,.5-.4l.8-.6.7-.4.6-.5.5-.6.4-.3.3-.2.3-.2.4-.5.3-.4.9-.8.6-.9c.2-.3.3-.3.4-.1a.2.2,0,0,1,.2.2c0,.1,0,.2.1.2v.6a.4.4,0,0,0-.1.3c0,.1-.1.2-.2.3a.9.9,0,0,1-.4.6c-.2.2-.4.3-.5.6a1,1,0,0,0-.4.5,1,1,0,0,0-.4.5c-.1.1-.2.1-.2.2s-.1.2-.2.2-.1.1-.1,0h-.1c-.1.1-.3.2-.4.4l-.5.3-.3.3-.3.3-.3.2-.3.2-.7.4c-.2,0-.3.2-.5.4l-1.1.6-.5.3-.7.4H33l-.5.2-.7.2-.5.2-.6.2a4.9,4.9,0,0,1-2.4.1l-.5-.2h-.5l-.6-.3-.4-.3-.4-.5-.3-.5-.2-.8a.4.4,0,0,0-.1-.3v-.5c0-.2.1-.4.1-.7v-.2l.2-.3v-.2c0-.1.1-.1.1-.2V40l.2-.3a4.3,4.3,0,0,0,.1-.5,2.5,2.5,0,0,0,.4-.7,3.6,3.6,0,0,1,.4-.9,1.6,1.6,0,0,1,.4-.7l.3-.8.5-1H27l-.8-.2h-.6c-.2,0-.3.2-.4.4l-.5.6a2.1,2.1,0,0,0-.4.6,2.1,2.1,0,0,1-.4.6l-1,1c0,.2-.1.3-.3.4s-.4,0-.6-.2-.1-.2-.1-.3-.1-.2,0-.6L23,35.5c.2-.3.3-.5.5-.6l.3-.6a1.6,1.6,0,0,1,.3-.6,1.7,1.7,0,0,1,.2-.5c0,.1-.1,0-.1-.2v-.6c0-.2.1-.5.1-.8v-.5a1.3,1.3,0,0,1,.1-.6l.7-1.3Zm.3,1.6h-.7c0,.1,0,.1-.2.1h0v1.6l.4-.3.4-.4.2-.4v-.5h-.1Z" fill="#231f20"/><path d="M47,31.4l.6.3c.2,0,.4.2.6.4s.1.2.2.3.1.2,0,.4a.5.5,0,0,1,.2.4v.5c-.1.1-.1.3-.2.5a.8.8,0,0,1-.1.4v.3c0,.1-.1.2-.2.3l-.3.3-.3.3-.3.2-.4.5-.3.2-1,.4-1,.5h-.9l-.4.2H41.1l-.2.6a1.4,1.4,0,0,0-.2.6V40a1.3,1.3,0,0,0-.1.6l.2,1.5.3.5a.5.5,0,0,0,.5.4,1,1,0,0,0,.5.4h3.5a.5.5,0,0,0,.4-.2h.3l.4-.2a16.6,16.6,0,0,0,3.3-1.5,33.3,33.3,0,0,0,3.2-2.4.8.8,0,0,0,.4-.4L54,38l.7-.7a1.8,1.8,0,0,1,.7-.5h.4c.2.1.3.1.2.2h.2c0,.2,0,.3-.1.4h0c0,.1,0,.1-.1.2l-.6.6c-.2.2-.3.4-.5.5l-.5.5-.6.4a1,1,0,0,1-.5.6,1.1,1.1,0,0,1-.8.3l-.7.7-.7.5-.4.3-.5.2-.3.2c0-.1,0-.1-.1,0l-.6.4-.5.3h-.3a.1.1,0,0,0-.1.1h-.4L47,44l-1,.3-.6.2H41.8l-.5-.2h-.5c-.2-.1-.3-.1-.4-.3l-.6-.3-.5-1.4v-.2c0-.1,0-.1-.1-.2a.6.6,0,0,0-.1-.4v-.7a.4.4,0,0,0,.1-.3v-.7a5.6,5.6,0,0,1,.4-1.2c0-.1.1-.2.2-.5l.3-.7a2.5,2.5,0,0,0,.4-.7c.1-.2.2-.3.2-.4s.3-.3.7-.8a17.3,17.3,0,0,1,1.7-2.1l.6-.6.6-.4q0-.2.3-.3l.6-.3.4-.3.3-.2Zm.6,2.1c-.1,0-.1,0-.1-.1H46.4c-.2-.1-.4,0-.7.2l-.6.4-.6.3c-.2,0-.4.2-.6.4a3.5,3.5,0,0,0-.5.8l-.7.8-.6.7h.3c.1,0,.1,0,.1-.1h.8l1.2-.5,1.1-.6.3-.2.7-.5.6-.5.3-.3h.1a.2.2,0,0,1,.2-.2h-.1A.1.1,0,0,1,47.6,33.5Z" fill="#231f20"/><path d="M62.4,32.1h.8l.3.2H64a.1.1,0,0,0,.1.1,1.3,1.3,0,0,1,.1.6H62.6a.6.6,0,0,0-.5.2h-.6l-.5.5-.6.3-.5.4a12.4,12.4,0,0,0-2.2,1.8,6,6,0,0,0-1.1,1.2,2.1,2.1,0,0,1-.6,1,1.8,1.8,0,0,0-.4,1,1.1,1.1,0,0,0-.1.5c0,.1-.1.2-.1.3V41h.1v.5h.2l.5.3h1.3l.6-.3.5-.3a.5.5,0,0,0,.5-.3c.1-.2.3-.3.6-.5l.4-.5c.2-.2.3-.4.5-.5a.8.8,0,0,1,.4-.4l1-1.2.5-.6.5-.6.9-1.2a4.3,4.3,0,0,0,.4-.7c.2-.1.4-.2.4-.5h.1a.4.4,0,0,0,.1-.3q.1-.3.3-.3h.8c.1.1.1.1.1.2a.1.1,0,0,0,.1.1c.1,0,.1.1.1.2v.2c.1.2.1.3,0,.4s-.1.2-.1.4-.1.2-.2.3-.3.3-.3.5a1.7,1.7,0,0,1-.2.5.9.9,0,0,0-.1.5,6.9,6.9,0,0,0-.4,1,8.1,8.1,0,0,0-.3,1.1v2.2a.8.8,0,0,1,.1.3,1.6,1.6,0,0,0,.3.6h.4l.5.3h1.6l.8-.2.7-.3.9-.4c.3-.2.6-.3.7-.5l.7-.3a1.2,1.2,0,0,1,.5-.5l.5-.3.8-.6.7-.6.5-.4c0-.1.2-.3.4-.4s.1-.1.2-.3l.5-.6.6-.6c.1-.3.2-.3.4-.1v.3c0-.1.1-.1.3.1s.1.4-.1.9-.1.2-.2.3l-1,1a.7.7,0,0,1-.3.5l-.5.4-.5.5c-.2,0-.4.2-.7.4l-.5.4a1.3,1.3,0,0,1-.6.5l-.4.3-.5.3-.6.2-.7.5-.8.4-.9.3a1.6,1.6,0,0,1-.9.3l-.5.2h-1c-.1.1-.3,0-.4,0l-.4-.2a.7.7,0,0,1-.6-.2c-.2-.1-.2-.1-.1,0h-.2l-.3-.3-.2-.2-.3-.5a.8.8,0,0,0-.2-.5,6.2,6.2,0,0,1-.2-2.4,3.6,3.6,0,0,1,.2-1c.1-.1.1-.2.1-.4a1.4,1.4,0,0,1,.2-.6l.2-.6-.5.8-.6.6a2.1,2.1,0,0,1-.6.8l-.2.3-.3.3-.4.5-.3.4-.7.6-.5.6-.7.4a1.9,1.9,0,0,0-.7.6H55.1l-.3-.6c-.2,0-.3-.1-.3-.2a2.4,2.4,0,0,1-.2-.8c0-.1-.1-.1-.1-.2h0V41c0-.2,0-.4.1-.4v-.7a2,2,0,0,1,.1-.7,1.8,1.8,0,0,1,.4-.9,2.3,2.3,0,0,0,.4-1l.2-.3a.2.2,0,0,1,.2-.2l.7-.8a1,1,0,0,1,.5-.6,1.8,1.8,0,0,1,.5-.7l.7-.5a2.1,2.1,0,0,1,.8-.6l.7-.5.5-.2.3-.3.8-.3h1.3Z" fill="#231f20"/><path d="M82.4,31.4a1,1,0,0,1,.4.5v.9a2.1,2.1,0,0,0-.2,1.3,4.9,4.9,0,0,1,.1,1.2v1.2a3.8,3.8,0,0,1,.1,1c-.1.3-.1.7-.2,1a5.9,5.9,0,0,1-.2,1.4h3l1.1-.2H87l.5-.2.5-.2h.5l1.3-.6,1.2-.9,1.1-.9.9-1h.2a.3.3,0,0,0,.1.2c.1.1.2.1.2.2a1,1,0,0,1-.2.9l-.3.2-.4.3-.2.3-.2.2-.8.8-1,.7-1,.4-1,.4-1.1.4-1.1.3-2.2.5H81.8l-.9,1.5-.8.9a3,3,0,0,1-.8.8l-1,.7-.9.4-.6.2-.6.2a2,2,0,0,1-1.7-.1l-.4-.3a.8.8,0,0,1-.4-.4.8.8,0,0,1-.2-.5l-.3-.5a1.4,1.4,0,0,1,0-.9,5.6,5.6,0,0,1,.7-1.3l.6-.5.5-.4,1-.5,1.2-.4,1-.2h2.5l.3-.5a2.5,2.5,0,0,1,.2-.7v-.2c0-.1.1-.1.1-.2v-.6a10.9,10.9,0,0,0,0-3.6V34a1,1,0,0,1-.1-.4l-.7.7-.7.6a4.5,4.5,0,0,0-.7.7l-2,1.9h-.6a.2.2,0,0,0-.2-.2.3.3,0,0,1-.1-.2c-.1,0-.1-.1,0-.2v-.2c0-.1.1-.3.4-.5a3.3,3.3,0,0,1,.8-1.1l1-1a.8.8,0,0,0,.4-.4l.3-.4a.8.8,0,0,0,.4-.4l.4-.5.3-.4.5-.6a.3.3,0,0,0,.1-.2.4.4,0,0,1,.1-.3h.4a.4.4,0,0,1,.5.1Zm-5.5,11h-.6l-.8.3-1.1.9-.3.4h0a.9.9,0,0,0,.6.4,3.8,3.8,0,0,0,1.5,0h.5l.5-.3.6-.3,1.1-.8.5-.5.3-.6H77.9Z" fill="#231f20"/><path d="M93.5,34.3c0-.1.1-.2.1-.3l.3-.5.3-.4c.1-.2.2-.2.3-.2H95c0,.1.1.2.1.3a.8.8,0,0,1,.1.4c0,.2-.1.3-.2.5h0l-.4,1a2.1,2.1,0,0,1-.4.6l-.3.5-.5,1.2c-.1.3-.4.7-.6,1.1a6.9,6.9,0,0,0-.4,1,4.9,4.9,0,0,0-.4,1.1v.4c0,.1-.1.2-.1.3v.7h1.7l1.1-.4,1.1-.7.9-.6.9-.8a10.7,10.7,0,0,0,1.6-1.4l1.5-1.6v-.2l.5-1.1.5-1.2.4-.4c0-.1.1-.1.1-.2h.3a.1.1,0,0,0,.1-.1h.5v.2l.3.3c.2,0,.2.1.3.2V35c-.1.1-.1.2-.1.4a.4.4,0,0,0-.1.3l-.3.3a3.1,3.1,0,0,1-.5,1l-.8.9h-.3v.7l-.2.7v1.2a.8.8,0,0,0,.2.5v.4l.2.2.2.3a3.9,3.9,0,0,0,1.1.6h2.3l.7-.3.9-.4a3,3,0,0,0,1.1-.6l1-.6.5-.3.5-.4v-.2l.2-.2.5-.4,1.2-1.3.5-.8.4-.3.4-.4c.1-.1.2,0,.3.1v.8c0,.2-.1.3-.1.4l-.5.8-.8.8-.6.8c-.3.3-.5.6-.8.7l-.8.9-1.1.7-1,.6a3.1,3.1,0,0,1-1,.5l-1.2.5-.5.3h-2.7c-.2-.1-.4-.1-.5-.3l-.6-.3-.3-.2-.3-.3-.5-.8V42a.3.3,0,0,1-.1-.2h0a.1.1,0,0,1-.1-.1V39.2l-.4.5-1.7,1.6a3.9,3.9,0,0,1-1,.8l-.9.6a11.3,11.3,0,0,1-2.1,1.2l-.7.2-.4.2H91.7q-.3-.1-.3-.3l-.4-.4c0-.1-.1-.2-.1-.4a.4.4,0,0,0-.1-.3v-.3a9.1,9.1,0,0,1-.1-1.7c0-.2.1-.4.1-.7a1.9,1.9,0,0,1,.2-.7v-.5l.2-.5.3-.7a1.3,1.3,0,0,1,.5-.6c0-.1.1-.2.1-.3h.1c.1-.1.1-.2.2-.4l.6-1c.1-.1.1-.3.2-.4Z" fill="#231f20"/><path d="M117.1,28.8c.1,0,.2,0,.2-.1h.3l.5.2a1,1,0,0,1,.4.5c.1.2.1.4.2.6v.8l-.3.9-.4.8-.4.5,1.2.3a1.8,1.8,0,0,0,1.6-.1s.1-.1.1,0h.4l.3.2.2.2a2.8,2.8,0,0,1-.1.9,6.1,6.1,0,0,0-.4.6l-.4.7a2.2,2.2,0,0,1-.5.8,2.5,2.5,0,0,0-.4.7l-.4.7-.3.7-.8,2.4c0,.1,0,.1-.1.1h0v.6c0,.3,0,.4.1.5s0,.1.2.4l.2.5.4.3h.4c.2.2.3.2.4.2h1.4l.8-.2.7-.2.7-.2,1-.4a1,1,0,0,0,.5-.4l.7-.3h.3a.5.5,0,0,1,.6-.4l.8-.6.6-.4.7-.5.5-.6.4-.3.2-.2.3-.2.5-.5.3-.4.8-.8.7-.9c.1-.3.2-.3.4-.1s.1.1.1.2a.3.3,0,0,1,.1.2v.6a3732083986368,3732083986368,0,0,0-.2.6c-.2.3-.3.5-.5.6l-.5.6-.4.5-.4.5c0,.1-.1.1-.2.2a.2.2,0,0,1-.2.2h0c-.1,0-.1,0-.1.1l-.5.4-.4.3-.3.3-.4.3c-.1.1-.1.2-.2.2a.5.5,0,0,1-.4.2l-.6.4c-.2,0-.4.2-.6.4l-1,.6-.6.3-.7.4h-.4l-.5.2-.8.2-.5.2-.5.2a5,5,0,0,1-2.4.1l-.6-.2h-.4l-.6-.3-.5-.3-.3-.5c-.2-.2-.2-.4-.3-.5l-.3-.8V41.1a.3.3,0,0,0,.1-.2c0-.1.1-.2.1-.3a.3.3,0,0,1,.1-.2v-.2c.1-.1.1-.1.1-.2s.1-.2.1-.3.1-.3.2-.5l.3-.7.5-.9.3-.7a3,3,0,0,0,.4-.8l.5-1h-1.1l-.7-.2H117a.1.1,0,0,1-.1-.1h-.2c-.1,0-.2.2-.3.4s-.3.3-.5.6l-.5.6-.3.6-1,1c0,.2-.2.3-.4.4a.4.4,0,0,1-.5-.2l-.2-.3a2.8,2.8,0,0,1,.1-.6l1-1.4.5-.6a2.1,2.1,0,0,0,.4-.6l.2-.6c.1-.1.1-.3.2-.5V31.1a1.4,1.4,0,0,1,.2-.6l.6-1.3Zm.3,1.6h-.6c0,.1-.1.1-.2.1s0,.1-.1.1v1.6l.4-.3.5-.4v-.4a.3.3,0,0,0,.1-.2v-.3h-.2Z" fill="#231f20"/><path d="M138.2,31.4l.6.3a.7.7,0,0,1,.5.4c.1.1.2.2.2.3s.1.2.1.4.1.2.1.4v.5a4.3,4.3,0,0,0-.1.5c0,.1-.1.2-.1.4a.4.4,0,0,0-.1.3c0,.1,0,.2-.2.3l-.3.3-.3.3c-.1.1-.1.2-.2.2l-.4.5-.4.2-.9.4-1,.5h-.9l-.5.2h-2l-.3.6a1.3,1.3,0,0,0-.1.6l-.2.5c0,.2-.1.4-.1.6l.3,1.5a1.7,1.7,0,0,0,.2.5c.2.3.3.4.6.4l.4.4h3.6l.3-.2h.4l.4-.2,3.3-1.5,3.2-2.4.4-.4.4-.4a2.3,2.3,0,0,0,.7-.7l.8-.5h.3c.2.1.3.1.3.2a.1.1,0,0,0,.1.1h0v.4h0v.2l-.7.6-.4.5c-.2.2-.4.3-.5.5l-.7.4a1,1,0,0,1-.5.6.9.9,0,0,1-.7.3l-.8.7-.6.5-.5.3-.4.2-.3.2c0-.1-.1-.1-.1,0l-.7.4-.5.3h-.7l-.9.5-1.1.3-.6.2h-3.6l-.5-.2h-.5c-.1-.1-.3-.1-.4-.3l-.5-.3-.6-1.4v-.2c0-.1,0-.1-.1-.2v-.4a.4.4,0,0,1-.1-.3.8.8,0,0,1,.1-.4v-.7c0-.1.1-.2.1-.3a2.7,2.7,0,0,1,.3-1.2c.1-.1.1-.2.2-.5a4.3,4.3,0,0,0,.4-.7l.3-.7.3-.4c.1,0,.3-.3.6-.8a12.6,12.6,0,0,1,1.8-2.1l.5-.6.6-.4.3-.3.7-.3.3-.3a.5.5,0,0,0,.4-.2Zm.6,2.1c-.1,0-.2,0-.2-.1h-1a.9.9,0,0,0-.8.2,1,1,0,0,0-.5.4l-.7.3-.6.4a3,3,0,0,0-.4.8l-.8.8-.6.7h1.3l1.1-.5,1.1-.6.4-.2.6-.5.7-.5.3-.3h.1c0-.1,0-.2.1-.2h0c0-.1,0-.1-.1-.1Z" fill="#231f20"/><path d="M194.5,7.5l.2-.3c.2-.2.3-.3.5-.3h.3a.9.9,0,0,1,.3.5h0a.4.4,0,0,1,0,.5c0,.2-.1.3-.2.5v.3a.8.8,0,0,1-.1.4,1.4,1.4,0,0,1-.2.6c-.2.2-.2.4-.3.7v.2l-.2.3c0,.1,0,.2-.2.4l-.2.3-.3.9c-.1.2-.1.5-.2.7l-.4,1.2-.3.7-.2.6a1.4,1.4,0,0,0-.2.6c-.1.3-.1.5-.2.8l-.6,1.2-.4,1.3a6.1,6.1,0,0,1-.5,1.2l-.6,1.3a5.6,5.6,0,0,0-.4,1.2,4.1,4.1,0,0,1-.6,1.1,5.7,5.7,0,0,1-.4,1.4l-.7,1.2-.9,2.5-1,2.5a5.8,5.8,0,0,0-.2,1l-.4,1a6.1,6.1,0,0,0-.5,1.2l-.4,1.3-.6,1.2a7.8,7.8,0,0,1-.5,1.4l-.9,2.4-.6,1.2a3.7,3.7,0,0,1-.5,1.1l-.5,1.2-.5,1.2a11.2,11.2,0,0,1-.5,1.3c-.1.2-.1.3-.2.4s-.1.2-.1.3v.3a1.4,1.4,0,0,1-.2.7c-.1.2-.2.2-.4.1H179c-.1-.1-.2-.2-.2-.3a2.5,2.5,0,0,1-.1-.8c.1-.3.1-.6.2-.9v-.2l.3-.5.5-1.6c.1-.3.3-.7.4-1.1l.6-1.3,1.1-2.3.5-1.2a11.2,11.2,0,0,1,.5-1.3l.4-1.2.3-.7a1.4,1.4,0,0,1,.2-.6,16,16,0,0,0,.8-2.3l.8-2.2,1.3-3.7h-.4l-1.2.3H172.4c-.1.2-.1.3-.2.4s-.1.2-.2.4-.2.6-.6,1a3.5,3.5,0,0,1-.6,1.4l-.6,1.4-.4.5-.3.5-.6,1a1.9,1.9,0,0,1-.2.8.9.9,0,0,0-.3.7,3.6,3.6,0,0,0-.4.9,5.9,5.9,0,0,0-.4.8c-.4.8-.9,1.8-1.4,3a15,15,0,0,0-1,3l-.4,1.3a5.6,5.6,0,0,0-.4,1.2,1.4,1.4,0,0,0-.2.6,6.4,6.4,0,0,0-.2.7,1.7,1.7,0,0,0-.2.5l-.2.2q.2.1,0,.6l-.3.2c0,.1-.1.1-.2.1s-.2.1-.4,0h-.1l-.7-.6a1.5,1.5,0,0,1-.1-.7.8.8,0,0,0,.1-.4c0-.2.1-.3.1-.6h.3v-.2c0-.1.1-.2.1-.3a1.4,1.4,0,0,0,.2-.6c.1-.2.1-.4.3-.5s.1-.4.1-.7a1.4,1.4,0,0,0,.2-.6,11.3,11.3,0,0,0,.7-1.8,13,13,0,0,0,.6-1.9,3.7,3.7,0,0,0,.5-1.1c.2-.4.3-.9.5-1.3a2.3,2.3,0,0,1,.6-1.2c.1-.2.1-.4.2-.6a1.4,1.4,0,0,1,.2-.6l1.3-2.7.6-1.1.5-1,.2-.3c.1-.1.1-.2.2-.4l.6-1.2.6-1.1a1.4,1.4,0,0,1,.2-.7,1.3,1.3,0,0,1,.3-.5,1.9,1.9,0,0,1,.2-.7l.3-.6a6.1,6.1,0,0,0,.5-1.2,5,5,0,0,0,.4-1.3l.6-1.1a5,5,0,0,0,.5-1.3l1-2.4,1.1-2.4.2-.4c.1-.1.1-.2.2-.5a6.6,6.6,0,0,0,.4-1.1l1.2-2.5.5-1.1.5-1.1.3-.7.3-.6.4-1.3c.1-.3.3-.4.4-.4h.7l.2.5c.1.2.1.4.2.5v.3a.8.8,0,0,1-.2.4l-.3.9a3.6,3.6,0,0,1-.4.9l-.6,1.4a6.4,6.4,0,0,1-.2.7.9.9,0,0,1-.3.5l-.3.7c-.1.2-.2.3-.2.5l-.6,1.3-.2.3a1,1,0,0,0-.1.4l-1.1,2.5-.3.5a6.4,6.4,0,0,0-.2.7l-.6,1.2a6.1,6.1,0,0,1-.5,1.2,6.1,6.1,0,0,0-.5,1.2,6.1,6.1,0,0,0-.5,1.2l-.7,1.3-.3,1.3h.3l1.1-.3,1.3-.2h8.3l1.2-.2h2.2c.1,0,.1-.1.1-.2l.3-.6c.1-.2.1-.4.2-.6a1.4,1.4,0,0,1,.2-.7l1-2.5a3.4,3.4,0,0,0,.6-1.2,9.3,9.3,0,0,1,.4-1.3c.1-.1.1-.3.2-.5s.2-.4.3-.6l.6-1.3a1.5,1.5,0,0,1,.1-.7,1.4,1.4,0,0,0,.2-.7l.3-.6.3-.6.4-1.2a1.4,1.4,0,0,1,.2-.6,1.6,1.6,0,0,1,.3-.6.4.4,0,0,1,.1-.3l.2-.3a.5.5,0,0,1,.2-.4.6.6,0,0,0,.1-.4,3,3,0,0,1,.4-1A1.7,1.7,0,0,0,194.5,7.5Z" fill="#231f20"/><path d="M194.1,34.3c0-.1.1-.2.1-.3l.3-.5.3-.4c.1-.2.2-.2.3-.2h.5c0,.1.1.2.1.3a.8.8,0,0,1,.1.4c0,.2-.1.3-.2.5h0l-.4,1a2.1,2.1,0,0,1-.4.6l-.3.5-.5,1.2c-.1.3-.4.7-.6,1.1a6.9,6.9,0,0,0-.4,1,4.9,4.9,0,0,0-.4,1.1v.4c0,.1-.1.2-.1.3v.7h1.7l1.1-.4,1.1-.7.9-.6.9-.8a10.7,10.7,0,0,0,1.6-1.4l1.5-1.6v-.2l.5-1.1.5-1.2.4-.4c0-.1.1-.1.1-.2h.3a.1.1,0,0,0,.1-.1h.5v.2l.3.3c.2,0,.2.1.3.2V35c-.1.1-.1.2-.1.4a.4.4,0,0,0-.1.3l-.3.3a3.1,3.1,0,0,1-.5,1l-.8.9h-.3v.7l-.2.7v1.2a.8.8,0,0,0,.2.5v.4l.2.2.2.3a3.9,3.9,0,0,0,1.1.6h2.3l.7-.3.9-.4a3,3,0,0,0,1.1-.6l1-.6.5-.3.5-.4v-.2l.2-.2.5-.4,1.2-1.3.5-.8.4-.3.4-.4c.1-.1.2,0,.3.1v.8c0,.2-.1.3-.1.4l-.5.8-.8.8-.6.8c-.3.3-.5.6-.8.7l-.8.9-1.1.7-1,.6a3.1,3.1,0,0,1-1,.5l-1.2.5-.5.3h-2.7c-.2-.1-.4-.1-.5-.3l-.6-.3-.3-.2-.3-.3-.5-.8V42a.3.3,0,0,1-.1-.2h0a.1.1,0,0,1-.1-.1V39.2l-.4.5-1.7,1.6a3.9,3.9,0,0,1-1,.8l-.9.6-2.1,1.2-.7.2-.4.2h-1.4q-.3-.1-.3-.3l-.4-.4c0-.1-.1-.2-.1-.4a.4.4,0,0,0-.1-.3v-.3a9.1,9.1,0,0,1-.1-1.7c0-.2.1-.4.1-.7a1.9,1.9,0,0,1,.2-.7v-.5l.2-.5.3-.7a1.3,1.3,0,0,1,.5-.6c0-.1.1-.2.1-.3h.1c.1-.1.1-.2.2-.4l.6-1c.1-.1.1-.3.2-.4S194,34.4,194.1,34.3Z" fill="#231f20"/><path d="M216.7,31.5a.2.2,0,0,1,.2-.2h.4l.3.3a1.6,1.6,0,0,1-.1,1.4l-.3.6h-.1a3.6,3.6,0,0,1-.4.9,3.6,3.6,0,0,0-.4.9l-.4.8a.6.6,0,0,0-.1.4l-.2.4-.6.9-.2.4.6-.4.8-1,.9-1c.2-.3.3-.5.4-.5l.6-.5a1.6,1.6,0,0,1,.7-.7l.8-.6.4-.2.4-.3.9-.2.5-.2h1.3l.4.2.3.2.3.3v.2c.1.4.2.6.2.7s.1.3.1.4V36l-.3,1.2-.3.8-.4,1.8a4.3,4.3,0,0,1-.1.5.9.9,0,0,0-.1.5v.3h0a.8.8,0,0,0,.1.4v.3l.2.4a.4.4,0,0,0,.1.3l.2.3a.9.9,0,0,0,.7.3h1l.7-.2.8-.2h.5l.4-.2h.7l.9-.6.9-.7.3-.2h0c0-.1,0-.1.1-.1l.2-.2.8-.7.6-.5.4-.6.4-.4c0-.1.2-.2.3-.4a1.7,1.7,0,0,0,.6-.6l.6-.5c0-.2.1-.1.2.1a.5.5,0,0,0,.2.4,3.5,3.5,0,0,0-.1.6c0,.2-.1.4-.2.4a.9.9,0,0,0-.3.5c0,.1-.1.2-.3.5a4.5,4.5,0,0,0-.7.7l-.8.7a4.7,4.7,0,0,1-1.2.9.3.3,0,0,0-.1.2h.1a.3.3,0,0,1-.1.2l-.8.5-.8.6-.9.6h-.3l-.3.2-.9.5-.5.2h-.5l-1,.2a1.7,1.7,0,0,1-1,0l-.8-.2-.3-.2a.2.2,0,0,1-.2-.2l-.5-.5-.2-.3-.3-.8c0-.2-.1-.4-.1-.6a3.8,3.8,0,0,1,0-1.5c0-.4.1-.7.1-1l.3-1a1.9,1.9,0,0,1,.2-.7,1.9,1.9,0,0,0,.2-.7l.3-1.1v-.2c0-.1,0-.1.1-.2a.8.8,0,0,0-.1-.3v-.2h0l-.3-.3-.3-.2a4.7,4.7,0,0,0-1.6.2,2.5,2.5,0,0,0-1.3.9l-.5.4-.5.4-1.2,1.3-.7.6-.5.7-.6.7-.5.7a2.2,2.2,0,0,0-.6.7l-.3.8-.4.6a5.6,5.6,0,0,0-.5.8l-.2.5-.5.7h-.4a.2.2,0,0,1-.3,0h-.3l-.3-.4a.6.6,0,0,1-.2-.5,2.9,2.9,0,0,1,.2-.9,2,2,0,0,0,.4-.8l.5-1.2a.9.9,0,0,1,.3-.5l.3-.6.5-1.3.3-.7.4-.7.6-1.4.4-1,.4-.7.6-1.5.3-.4Z" fill="#231f20"/><path d="M246.4,23.6h.3c0,.1.1.1.1.2v.8c0,.1-.1.2-.3.2l-2.1.9-1.4.4-1.3.3-.6.3-1.3,2.4-.4,1.1-.8,1.4-1.1,2.1L236.4,36a6.1,6.1,0,0,1-.5,1.2l-.6,1.2a5.6,5.6,0,0,0-.4,1.2l-.3,1.1v1.6l.2.3c0,.1.1.2.1.3s.1.2.1.3l.3.2.3.2h2.5l.7-.2.7-.2.6-.2.6-.3.6-.4,1.2-.6.5-.4.6-.4,1-.8.9-.8,1.2-1.1a.8.8,0,0,0,.4-.4l.2-.4c.2-.1.3-.3.4-.4l.3-.4c.2-.2.3-.4.5-.5a1,1,0,0,0,.4-.5c.1-.1.2-.1.4,0l.2.2a1.3,1.3,0,0,0,.1.5v.4l-.2.2a.3.3,0,0,1-.1.2c-.2.3-.3.5-.5.6l-.4.6a.2.2,0,0,0-.2.2c0,.1-.1.2-.2.3a1.3,1.3,0,0,1-.6.5l-.4.5-.4.5-1.1.8-1,.8-1.2.8a2.3,2.3,0,0,1-1.1.7.5.5,0,0,1-.5.3l-.7.4-1.3.6-1.4.3a2.7,2.7,0,0,1-1.2.3.8.8,0,0,1-.7,0l-.6-.2h-.5a.9.9,0,0,1-.6-.4l-.7-.5v-.3c-.2-.3-.2-.5-.3-.6s-.1-.5-.1-.7V40.3a4.1,4.1,0,0,1,.3-1.6l.3-1.4a2.8,2.8,0,0,0,.7-1.1l1.2-2.5.6-1.3.6-1.3,1.2-2.3.6-1.1.2-.6-.5.2h-3.9l-1.1-.2h-.1c0-.1,0-.1-.1-.1v-.5a.7.7,0,0,1,.1-.5h.1l1.4.2,1.3.2h3.1l.6-.2a2.5,2.5,0,0,0,.4-.7l.5-.6.6-1.3a8.6,8.6,0,0,1,.7-1,11.7,11.7,0,0,1,.5-1.1l.4-1.2.7-1.7h0l.3-.3h.8c.1.2.2.3.2.4a.4.4,0,0,1,.1.3,1.1,1.1,0,0,1-.1.5l-.2.6-.2.2-.2.3-.3.7-.6,1.4a7.5,7.5,0,0,0-.7,1.2l-.6,1.1-.4.6,1.9-.5,1.2-.4.7-.4h.7Z" fill="#231f20"/></svg>