<svg id="Layer_1" data-name="Layer 1" xmlns="http://www.w3.org/2000/svg" width="64" height="65.2" viewBox="0 0 64 65.2"><title>Artboard 164</title><circle cx="31.8" cy="32.4" r="31.2"/><path d="M17.8,20.3H9.2a1,1,0,0,1,0-2H28.5a1,1,0,0,1,0,2H19.8V46.1a1,1,0,0,1-1,1,1.1,1.1,0,0,1-1-1Z" fill="#fff"/><path d="M50.7,33.7H35.9V46.1a1.1,1.1,0,0,1-1.1,1,1,1,0,0,1-.9-1V19.3a.9.9,0,0,1,.9-1,1,1,0,0,1,1.1,1V31.7H50.7V19.3a.9.9,0,0,1,1-1,1,1,0,0,1,1,1V46.1a1.1,1.1,0,0,1-1,1,1,1,0,0,1-1-1Z" fill="#fff"/></svg>