<svg xmlns="http://www.w3.org/2000/svg"><symbol id="fb16234" viewBox="0 0 256.3 256"><path fill="#fff" d="M1 129.3c0 26.7-.1 53.4 0 80.1a47.6 47.6 0 0 0 16.6 36.4 46.1 46.1 0 0 0 31.2 11.8h160.8a47.2 47.2 0 0 0 10.6-1.2 47.9 47.9 0 0 0 25.3-15.1c7.8-8.9 12-19.3 12-31q.2-80.9 0-161.6a48.3 48.3 0 0 0-1-9.4 46.9 46.9 0 0 0-16.7-27.5 46.6 46.6 0 0 0-29.9-10.7q-80.6-.1-161.2 0a46.9 46.9 0 0 0-8.4.8 46.2 46.2 0 0 0-29 17.5A46.7 46.7 0 0 0 1 49.2c-.1 26.7 0 53.4 0 80.1z"/><path d="M1 129.3c0-26.7-.1-53.4 0-80.1a46.7 46.7 0 0 1 10.3-29.8 46.2 46.2 0 0 1 29-17.5 46.9 46.9 0 0 1 8.4-.8q80.6-.2 161.2 0a46.6 46.6 0 0 1 29.9 10.7 46.9 46.9 0 0 1 16.7 27.5 48.3 48.3 0 0 1 1 9.4q.2 80.7 0 161.6c0 11.7-4.2 22.1-12 31a47.9 47.9 0 0 1-25.3 15.1 47.2 47.2 0 0 1-10.6 1.2H48.8a46.1 46.1 0 0 1-31.2-11.8A47.6 47.6 0 0 1 1 209.4c-.1-26.7 0-53.4 0-80.1zm207.4-78.9h-.9c-5.2 0-10.5-.1-15.7 0l-19.9.3a41.2 41.2 0 0 0-13.3 2.9 27.9 27.9 0 0 0-15.5 14.1c-3 6-4 12.6-4.2 19.2s-.1 14.2-.1 21.4v1h-15.5v30h15.6V228h40v-88.8h24l3.3-29.9h-27.3V92a29.2 29.2 0 0 1 .4-5.1 6.8 6.8 0 0 1 4.7-5.8 19.6 19.6 0 0 1 6.3-.9h18.1z"/><path fill="#fff" d="M208.4 50.4v29.8h-18.1a19.6 19.6 0 0 0-6.3.9 6.8 6.8 0 0 0-4.7 5.8 29.2 29.2 0 0 0-.4 5.1v17.3h27.3l-3.3 29.9h-24V228h-40v-88.7h-15.6v-30h15.5v-1c0-7.2-.1-14.3.1-21.4s1.2-13.2 4.2-19.2a27.9 27.9 0 0 1 15.5-14.1 41.2 41.2 0 0 1 13.3-2.9l19.9-.3c5.2-.1 10.5 0 15.7 0z"/></symbol><symbol id="insta16234" viewBox="0 0 256.3 256"><path fill="#fff" d="M128.7.3c-26.5 0-53-.2-79.4.1C20.4.6.6 20.5.6 49.1q-.1 79.8 0 159.5c0 27.3 20.5 47.6 47.7 47.7h160.2a40.4 40.4 0 0 0 9.2-.8c23-4.8 38.2-23.5 38.2-47.3.1-52.2-.5-104.5.3-156.8.4-26.8-18.9-52.2-51.4-51.2-25.3.7-50.7.1-76.1.1z"/><path d="M128.7.3c25.4 0 50.8.6 76.1-.1 32.5-1 51.8 24.4 51.4 51.2-.8 52.3-.2 104.6-.3 156.8 0 23.8-15.2 42.5-38.2 47.3a40.4 40.4 0 0 1-9.2.8H48.3C21.1 256.2.6 235.9.6 208.6Q.5 128.8.6 49.1C.6 20.5 20.4.6 49.3.4 75.7.1 102.2.3 128.7.3zM28 126.1a14.9 14.9 0 0 0-.6 2.9c0 26.7-.3 53.4.1 80.1.2 13 8.9 20.5 22.6 20.5h156.3c14.5 0 22.5-8 22.6-22.6.1-25.3 0-50.7 0-76.1a41.9 41.9 0 0 0-.5-4.7h-40.2c-7 42.3-27.4 63.6-60.4 63.5s-53.4-21.5-60.4-63.6zm200.5-21.7c.2-2.4.5-4.1.5-5.8 0-16.1.1-32.2 0-48.3s-7.9-23.1-23.3-23.1H98.5c0 9.6-.1 18.1 0 26.7.1 4.9-.8 9.3-6.6 9.5s-7.5-4.2-7.5-9.4c0-7.5.1-15-.2-22.5 0-1.4-1.6-2.8-2.5-4.2-.6 1.4-1.8 2.8-1.8 4.2-.2 7.7-.1 15.4-.1 23.1.1 5.2-1.9 9-7.5 8.8s-6.9-3.9-6.8-8.7c0-7.7-.1-15.5 0-23.2.1-4.5-1.7-5.2-5.6-3.4 0 9.1 0 17.9.1 26.7 0 4.5-1.6 7.9-6.4 8.6s-7.8-2.6-7.9-8.2c-.2-9.2-.1-18.3-.1-27.6-12.6 2.6-18 9.3-18.2 22.2s-.1 26.9-.1 40.3v14.3c15.3 0 29.6.1 43.9-.2 1.6 0 3.4-2.1 4.6-3.6 4.4-5.2 8-11.3 13-15.7 28.4-25.1 70.9-18.1 90.6 14.5 1.2 2 3.5 4.7 5.3 4.8 14.5.4 29 .2 43.8.2zm-100.2 55.7c17.1-.1 30.2-13.6 30-31s-14.1-30.3-30.6-30-30.3 14.1-30.3 30.6a30.5 30.5 0 0 0 30.9 30.4z"/><path fill="#fff" d="M28 126.1h39.5c7 42.1 27.4 63.5 60.4 63.6s53.4-21.2 60.4-63.5h40.2a41.9 41.9 0 0 1 .5 4.7c0 25.4.1 50.8 0 76.1-.1 14.6-8.1 22.6-22.6 22.6H50.1c-13.7 0-22.4-7.5-22.6-20.5-.4-26.7-.1-53.4-.1-80.1a14.9 14.9 0 0 1 .6-2.9zm200.5-21.7c-14.8 0-29.3.2-43.8-.2-1.8-.1-4.1-2.8-5.3-4.8-19.7-32.6-62.2-39.6-90.6-14.5-5 4.4-8.6 10.5-13 15.7-1.2 1.5-3 3.6-4.6 3.6-14.3.3-28.6.2-43.9.2V90.1c0-13.4-.1-26.9.1-40.3S33 30.2 45.6 27.6c0 9.3-.1 18.4.1 27.6.1 5.6 3.4 8.9 7.9 8.2s6.4-4.1 6.4-8.6c-.1-8.8-.1-17.6-.1-26.7 3.9-1.8 5.7-1.1 5.6 3.4-.1 7.7 0 15.5 0 23.2-.1 4.8 1.7 8.5 6.8 8.7s7.6-3.6 7.5-8.8c0-7.7-.1-15.4.1-23.1 0-1.4 1.2-2.8 1.8-4.2.9 1.4 2.5 2.8 2.5 4.2.3 7.5.2 15 .2 22.5 0 5.2 1.5 9.6 7.5 9.4s6.7-4.6 6.6-9.5c-.1-8.6 0-17.1 0-26.7h107.2c15.4 0 23.2 7.6 23.3 23.1s0 32.2 0 48.3c0 1.7-.3 3.4-.5 5.8zm-18.9-40.2c0-2 .1-3.9 0-5.9 0-9.3-2.8-12.1-12.2-12.2h-5.2c-17.3 0-18.2.8-18.2 18.2s.5 17.6 17.9 17.6 17.7-.3 17.7-17.7z"/><path fill="#fff" d="M128.3 160.1a30.5 30.5 0 0 1-30.9-30.4c0-16.5 13.7-30.3 30.3-30.6s30.4 13.3 30.6 30-12.9 30.9-30 31z"/><path d="M209.6 64.2c0 17.4-.2 17.7-17.7 17.7S174 81.5 174 64.3s.9-18.2 18.2-18.2h5.2c9.4.1 12.2 2.9 12.2 12.2.1 2 0 3.9 0 5.9z"/></symbol><symbol id="twitter16234" viewBox="0 0 256.3 256"><path fill="#fff" d="M0 209.1l.4.3a151.1 151.1 0 0 0 28.5 14.1 145.2 145.2 0 0 0 32.6 8c4.3.5 8.7.7 13 1a138.1 138.1 0 0 0 23.2-.7c5.2-.6 10.4-1.5 15.5-2.5a136.5 136.5 0 0 0 35-11.9 142.4 142.4 0 0 0 28.9-19.2 140.3 140.3 0 0 0 16.3-16.4 147.4 147.4 0 0 0 12.1-16.4 160.7 160.7 0 0 0 12.4-23.6 150.2 150.2 0 0 0 8.7-27.1c1-4.9 1.8-9.9 2.5-14.9a109.4 109.4 0 0 0 .9-11.4c.2-3.9.1-7.7 0-11.6a1.2 1.2 0 0 1 .5-1c3.3-2.7 6.6-5.3 9.8-8.1A96.3 96.3 0 0 0 253.4 53l2.7-3.8a130.8 130.8 0 0 1-14.5 5c-6.1 1.6-13.7 3.1-15.1 2.8a52.8 52.8 0 0 0 13.9-12.3 51.2 51.2 0 0 0 8.7-16.5l-.7.4c-4 2-7.9 4.1-12 5.9a93.9 93.9 0 0 1-20.1 6.3 1 1 0 0 1-1-.4c-1.9-1.7-3.6-3.4-5.6-5a52.4 52.4 0 0 0-27.8-10.9 55.8 55.8 0 0 0-16.3 1.1 52.4 52.4 0 0 0-23.1 12 51 51 0 0 0-13.7 19.1 48.9 48.9 0 0 0-3.8 15.5 50.1 50.1 0 0 0 .5 13.4c.2 1.1.3 2.2.6 3.4C82 86 46 67.5 17.6 34a52.3 52.3 0 0 0-5.7 38.1c3 13.4 10.5 23.9 21.7 32a52.4 52.4 0 0 1-23.5-6.5c.1 12.6 3.8 23.8 11.6 33.6a53.9 53.9 0 0 0 30.1 18.7 50.9 50.9 0 0 1-23.3.8 53.5 53.5 0 0 0 48.9 36.7C54.6 204.9 28.7 211.9 0 209.1z"/><path d="M0 209.1c28.7 2.8 54.6-4.2 77.4-21.7a53.5 53.5 0 0 1-48.9-36.7 50.9 50.9 0 0 0 23.3-.8 53.9 53.9 0 0 1-30.1-18.7c-7.8-9.8-11.5-21-11.6-33.6a52.4 52.4 0 0 0 23.5 6.5c-11.2-8.1-18.7-18.6-21.7-32A52.3 52.3 0 0 1 17.6 34C46 67.5 82 86 126.1 89c-.3-1.2-.4-2.3-.6-3.4a50.1 50.1 0 0 1-.5-13.4 48.9 48.9 0 0 1 3.8-15.5 51 51 0 0 1 13.7-19.1 52.4 52.4 0 0 1 23.1-12 55.8 55.8 0 0 1 16.3-1.1 52.4 52.4 0 0 1 27.8 10.9c2 1.6 3.7 3.3 5.6 5a1 1 0 0 0 1 .4 93.9 93.9 0 0 0 20.1-6.3c4.1-1.8 8-3.9 12-5.9l.7-.4a51.2 51.2 0 0 1-8.7 16.5A52.8 52.8 0 0 1 226.5 57c1.4.3 9-1.2 15.1-2.8a130.8 130.8 0 0 0 14.5-5l-2.7 3.8a96.3 96.3 0 0 1-13.1 14.7c-3.2 2.8-6.5 5.4-9.8 8.1a1.2 1.2 0 0 0-.5 1c.1 3.9.2 7.7 0 11.6a109.4 109.4 0 0 1-.9 11.4c-.7 5-1.5 10-2.5 14.9a150.2 150.2 0 0 1-8.7 27.1 160.7 160.7 0 0 1-12.4 23.6 147.4 147.4 0 0 1-12.1 16.4 140.3 140.3 0 0 1-16.3 16.4 142.4 142.4 0 0 1-28.9 19.2 136.5 136.5 0 0 1-35 11.9c-5.1 1-10.3 1.9-15.5 2.5a138.1 138.1 0 0 1-23.2.7c-4.3-.3-8.7-.5-13-1a145.2 145.2 0 0 1-32.6-8A151.1 151.1 0 0 1 .4 209.4z"/></symbol></svg>