<svg xmlns="http://www.w3.org/2000/svg" width="3.6in" height="3.6in" viewBox="0 0 256.3 256"><path fill="#fff" d="M0 209.1l.4.3a151.1 151.1 0 0 0 28.5 14.1 145.2 145.2 0 0 0 32.6 8c4.3.5 8.7.7 13 1a138.1 138.1 0 0 0 23.2-.7c5.2-.6 10.4-1.5 15.5-2.5a136.5 136.5 0 0 0 35-11.9 142.4 142.4 0 0 0 28.9-19.2 140.3 140.3 0 0 0 16.3-16.4 147.4 147.4 0 0 0 12.1-16.4 160.7 160.7 0 0 0 12.4-23.6 150.2 150.2 0 0 0 8.7-27.1c1-4.9 1.8-9.9 2.5-14.9a109.4 109.4 0 0 0 .9-11.4c.2-3.9.1-7.7 0-11.6a1.2 1.2 0 0 1 .5-1c3.3-2.7 6.6-5.3 9.8-8.1A96.3 96.3 0 0 0 253.4 53l2.7-3.8a130.8 130.8 0 0 1-14.5 5c-6.1 1.6-13.7 3.1-15.1 2.8a52.8 52.8 0 0 0 13.9-12.3 51.2 51.2 0 0 0 8.7-16.5l-.7.4c-4 2-7.9 4.1-12 5.9a93.9 93.9 0 0 1-20.1 6.3 1 1 0 0 1-1-.4c-1.9-1.7-3.6-3.4-5.6-5a52.4 52.4 0 0 0-27.8-10.9 55.8 55.8 0 0 0-16.3 1.1 52.4 52.4 0 0 0-23.1 12 51 51 0 0 0-13.7 19.1 48.9 48.9 0 0 0-3.8 15.5 50.1 50.1 0 0 0 .5 13.4c.2 1.1.3 2.2.6 3.4C82 86 46 67.5 17.6 34a52.3 52.3 0 0 0-5.7 38.1c3 13.4 10.5 23.9 21.7 32a52.4 52.4 0 0 1-23.5-6.5c.1 12.6 3.8 23.8 11.6 33.6a53.9 53.9 0 0 0 30.1 18.7 50.9 50.9 0 0 1-23.3.8 53.5 53.5 0 0 0 48.9 36.7C54.6 204.9 28.7 211.9 0 209.1z"/><path d="M0 209.1c28.7 2.8 54.6-4.2 77.4-21.7a53.5 53.5 0 0 1-48.9-36.7 50.9 50.9 0 0 0 23.3-.8 53.9 53.9 0 0 1-30.1-18.7c-7.8-9.8-11.5-21-11.6-33.6a52.4 52.4 0 0 0 23.5 6.5c-11.2-8.1-18.7-18.6-21.7-32A52.3 52.3 0 0 1 17.6 34C46 67.5 82 86 126.1 89c-.3-1.2-.4-2.3-.6-3.4a50.1 50.1 0 0 1-.5-13.4 48.9 48.9 0 0 1 3.8-15.5 51 51 0 0 1 13.7-19.1 52.4 52.4 0 0 1 23.1-12 55.8 55.8 0 0 1 16.3-1.1 52.4 52.4 0 0 1 27.8 10.9c2 1.6 3.7 3.3 5.6 5a1 1 0 0 0 1 .4 93.9 93.9 0 0 0 20.1-6.3c4.1-1.8 8-3.9 12-5.9l.7-.4a51.2 51.2 0 0 1-8.7 16.5A52.8 52.8 0 0 1 226.5 57c1.4.3 9-1.2 15.1-2.8a130.8 130.8 0 0 0 14.5-5l-2.7 3.8a96.3 96.3 0 0 1-13.1 14.7c-3.2 2.8-6.5 5.4-9.8 8.1a1.2 1.2 0 0 0-.5 1c.1 3.9.2 7.7 0 11.6a109.4 109.4 0 0 1-.9 11.4c-.7 5-1.5 10-2.5 14.9a150.2 150.2 0 0 1-8.7 27.1 160.7 160.7 0 0 1-12.4 23.6 147.4 147.4 0 0 1-12.1 16.4 140.3 140.3 0 0 1-16.3 16.4 142.4 142.4 0 0 1-28.9 19.2 136.5 136.5 0 0 1-35 11.9c-5.1 1-10.3 1.9-15.5 2.5a138.1 138.1 0 0 1-23.2.7c-4.3-.3-8.7-.5-13-1a145.2 145.2 0 0 1-32.6-8A151.1 151.1 0 0 1 .4 209.4z"/></svg>